# xmcd
#
# Track frame offsets:
#	150
#	14693
#	28360
#	41643
#	55560
#	70358
#	82100
#	93998
#	108483
#	121638
#	134610
#	148140
#	161563
#	174560
#	187568
#	199138
#	209663
#	223670
#	234800
#	247808
#	259920
#
# Disc length: 3664 seconds
#
# Revision: 2
# Processed by: cddbd v1.4PL0 Copyright (c) Steve Scherf et al.
# Submitted via: EasyCDDAExtractor 4.6.9.1
#
DISCID=310e4e15
DTITLE=Ella Mae Morse - Ella Mae Morse Capitol Collectors Series
DYEAR=1900
DGENRE=Big Band
TTITLE0=Cow Cow Boogie
TTITLE1=Mr. Five By Five
TTITLE2=The Thrill Is Gone
TTITLE3=Get On Board Little Chillun
TTITLE4=Shoo Shoo Baby
TTITLE5=No Love, No Nothin'
TTITLE6=Milkman, Keep Those Bottles Quiet
TTITLE7=Tess's Torch Song (I Had A Man)
TTITLE8=The Patty Cake Man
TTITLE9=Captain Kidd
TTITLE10=Rip Van Winkle
TTITLE11=Buzz Me
TTITLE12=The House Of Blue Lights (With Don Raye)
TTITLE13=Pig Foot Pete
TTITLE14=Get Off It And Go
TTITLE15=Tennessee Saturday Night
TTITLE16=The Blacksmith Blues
TTITLE17=Oakie Boogie
TTITLE18=40 Cups Of Coffee
TTITLE19=I Love You Yes I Do
TTITLE20=Ac-Cent-Tchu-Ate The Positive
EXTD=
EXTT0=
EXTT1=
EXTT2=
EXTT3=
EXTT4=
EXTT5=
EXTT6=
EXTT7=
EXTT8=
EXTT9=
EXTT10=
EXTT11=
EXTT12=
EXTT13=
EXTT14=
EXTT15=
EXTT16=
EXTT17=
EXTT18=
EXTT19=
EXTT20=
PLAYORDER=
